<svg xmlns="http://www.w3.org/2000/svg" width="180" height="180" viewBox="0 0 180 180" fill="none">
  <!-- Background with rounded corners -->
  <rect width="180" height="180" rx="45" fill="#0EA5E9" />
  
  <!-- White heart shape, scaled up and centered -->
  <path d="M90 140C92 140 94 139 96 138C120 125 135 110 135 90C135 75 125 65 112.5 65C105 65 98.5 68.5 90 75C81.5 68.5 75 65 67.5 65C55 65 45 75 45 90C45 110 60 125 84 138C86 139 88 140 90 140Z" fill="white" />
  
  <!-- Medical cross, scaled up and centered -->
  <rect x="85" y="40" width="10" height="35" rx="5" fill="white" />
  <rect x="72.5" y="52.5" width="10" height="35" rx="5" transform="rotate(-90 72.5 52.5)" fill="white" />
  
  <!-- Clara text at the bottom -->
  <text x="90" y="165" text-anchor="middle" font-family="Arial" font-size="20" font-weight="bold" fill="white">CLARA</text>
</svg> 