<svg xmlns="http://www.w3.org/2000/svg" width="32" height="32" viewBox="0 0 32 32" fill="none">
  <!-- Background circle -->
  <circle cx="16" cy="16" r="15" fill="#0EA5E9" />
  
  <!-- White heart shape -->
  <path d="M16 24.5C16.2 24.5 16.4 24.4 16.6 24.3C21.2 21.4 24 18.5 24 15.1C24 12.4 22 10.5 19.5 10.5C18 10.5 16.7 11.2 16 12.3C15.3 11.2 14 10.5 12.5 10.5C10 10.5 8 12.4 8 15.1C8 18.5 10.8 21.4 15.4 24.3C15.6 24.4 15.8 24.5 16 24.5Z" fill="white" />
  
  <!-- Medical cross -->
  <rect x="15" y="6.5" width="2" height="7" rx="1" fill="white" />
  <rect x="12.5" y="9" width="2" height="7" rx="1" transform="rotate(-90 12.5 9)" fill="white" />
</svg> 